<svg width="17" height="32" viewBox="0 0 17 32" fill="none" xmlns="http://www.w3.org/2000/svg">
<path d="M10.9475 0.0582561C9.14587 0.339764 7.88222 0.952824 6.84377 2.04758C5.96796 2.97343 5.42372 4.05567 5.11719 5.47572C4.99833 6.01371 4.98581 6.33901 4.96079 8.86632L4.93577 11.6689H2.46476H0V14.5152V17.3616L2.4585 17.3741L4.91075 17.3929L4.92951 24.6933L4.94202 32H7.88222H10.8224V24.6808V17.3616H13.2621C14.6071 17.3616 15.7019 17.3553 15.7019 17.3428C15.8708 16.2043 16.4275 11.7502 16.4088 11.7127C16.3963 11.6877 15.1326 11.6689 13.6 11.6689H10.8162L10.8349 9.3355C10.8537 7.05841 10.8599 7.00211 11.0038 6.63928C11.2978 5.90736 11.9109 5.46946 12.8368 5.3506C13.087 5.31932 14.0441 5.28804 14.97 5.28804H16.6402L16.6277 2.73571L16.609 0.189627L15.7957 0.114557C14.4632 -0.00430119 11.5731 -0.0418359 10.9475 0.0582561Z" fill="white"/>
</svg>
