<svg width="33" height="33" viewBox="0 0 33 33" fill="none" xmlns="http://www.w3.org/2000/svg">
<path d="M7.83195 0.097078C4.15846 0.612656 1.20033 3.25499 0.298068 6.83181C0.207842 7.16694 0.111171 7.70185 0.0725031 8.02409C-0.0241677 8.82323 -0.0241677 24.1746 0.0725031 24.9737C0.517189 28.731 3.19175 31.7858 6.83302 32.7009C7.16814 32.7912 7.7095 32.8878 8.02529 32.9265C8.82444 33.0232 24.1758 33.0232 24.9749 32.9265C28.3584 32.5269 31.1876 30.3164 32.4186 27.1198C32.6183 26.5978 32.8504 25.6182 32.9277 24.9737C33.0244 24.1746 33.0244 8.82323 32.9277 8.02409C32.5281 4.64061 30.3176 1.81137 27.121 0.580432C26.599 0.380645 25.6194 0.148635 24.9749 0.0712995C24.092 -0.0382616 8.59887 -0.0124811 7.83195 0.097078ZM26.9148 4.29904C27.7461 4.57616 28.4164 5.24641 28.7 6.08422C28.8353 6.4838 28.8417 7.27005 28.7128 7.69541C28.1844 9.44192 26.1027 10.1895 24.5882 9.17769C23.6989 8.59122 23.2284 7.54073 23.3895 6.51602C23.5571 5.48486 24.2595 4.64061 25.2198 4.31193C25.658 4.1637 26.4894 4.15081 26.9148 4.29904ZM17.9179 7.57296C19.832 7.88875 21.5205 8.75234 22.8804 10.1186C24.614 11.8458 25.5227 14.0435 25.5227 16.4989C25.5227 18.9543 24.614 21.152 22.8804 22.8792C21.1532 24.6128 18.9555 25.5215 16.5001 25.5215C14.0447 25.5215 11.847 24.6128 10.1198 22.8792C8.38619 21.152 7.47749 18.9543 7.47749 16.4989C7.47749 14.0435 8.38619 11.8458 10.1198 10.1186C11.4539 8.77812 13.1488 7.90164 15.0178 7.57296C15.6816 7.46339 17.2477 7.45695 17.9179 7.57296Z" fill="white"/>
</svg>
