<svg width="32" height="26" viewBox="0 0 32 26" fill="none" xmlns="http://www.w3.org/2000/svg">
<path d="M20.9923 0.0953565C18.4409 0.558099 16.4211 2.42158 15.752 4.94791C15.6332 5.37939 15.6082 5.63577 15.6082 6.49872C15.602 7.06777 15.6207 7.64933 15.652 7.79941L15.6958 8.07455L15.2768 8.03078C12.5191 7.78065 10.2929 7.14906 8.07299 5.99221C6.02192 4.92289 3.88955 3.24076 2.58261 1.67118C2.3825 1.43356 2.1949 1.25221 2.16364 1.26472C2.12612 1.27723 1.9948 1.52736 1.86348 1.82752C0.963006 3.85983 1.13185 6.20482 2.30121 8.03078C2.64514 8.56231 3.20794 9.19389 3.66443 9.55658L4.13342 9.93803H3.87704C3.32675 9.93803 2.1824 9.62537 1.56332 9.3127C1.432 9.24392 1.29443 9.18764 1.26942 9.18764C1.18187 9.18764 1.29443 10.332 1.43826 10.8823C2.00731 13.0397 3.60815 14.7468 5.74052 15.4597C6.0907 15.5785 6.34083 15.6911 6.29081 15.7098C6.00941 15.8161 5.08392 15.8912 4.36479 15.8661L3.55187 15.8286L3.59564 15.9912C3.66443 16.2664 4.12717 17.1418 4.41482 17.542C5.5154 19.0928 7.3226 20.1559 9.08603 20.2997C9.34866 20.3185 9.56753 20.356 9.56753 20.3873C9.56753 20.4873 8.16679 21.3565 7.31009 21.7818C5.35907 22.751 3.4268 23.17 1.15686 23.12L0 23.095L0.325171 23.3013C0.806674 23.6015 2.25744 24.3331 2.90778 24.602C6.41587 26.059 10.5118 26.3904 14.3763 25.5337C20.0605 24.2706 24.7443 20.3185 27.108 14.7843C28.1148 12.4206 28.6213 10.0944 28.6776 7.59305L28.6963 6.46746L29.1528 6.10477C29.7281 5.63577 30.3785 5.01669 30.8725 4.4664C31.2915 3.99115 31.9043 3.17197 31.8668 3.14071C31.8542 3.1282 31.6666 3.19073 31.4478 3.27828C30.6161 3.61596 28.6963 4.10371 28.4087 4.04743C28.3399 4.03493 28.3899 3.9724 28.5713 3.85358C29.0465 3.54092 29.8907 2.67171 30.2472 2.13393C30.5598 1.67118 31.0163 0.751952 31.0163 0.589366C31.0163 0.551846 30.6349 0.714432 30.1659 0.945804C29.3154 1.35852 28.2086 1.75873 27.3456 1.96509L26.8891 2.0714L26.5077 1.72121C25.0444 0.364247 22.9371 -0.254828 20.9923 0.0953565Z" fill="white"/>
</svg>
