<svg width="30" height="31" viewBox="0 0 30 31" fill="none" xmlns="http://www.w3.org/2000/svg">
<path d="M28.4563 21.6745H7.4885C7.09128 21.6745 6.71034 21.5114 6.42946 21.2211C6.14859 20.9307 5.9908 20.5369 5.9908 20.1263C5.9908 19.7157 6.14859 19.3219 6.42946 19.0316C6.71034 18.7413 7.09128 18.5781 7.4885 18.5781H23.1245C24.1259 18.5782 25.0987 18.2324 25.8883 17.5957C26.6779 16.959 27.2391 16.0679 27.4828 15.0638L29.954 5.0161C30.0101 4.7876 30.015 4.54888 29.9682 4.31814C29.9215 4.0874 29.8244 3.87073 29.6844 3.68467C29.5387 3.49383 29.3517 3.34112 29.1383 3.23891C28.9249 3.13671 28.6913 3.08787 28.4563 3.09636H7.12905C6.82005 2.19292 6.2483 1.41039 5.49216 0.856048C4.73603 0.301707 3.83253 0.00269307 2.90554 0H1.4977C1.10048 0 0.719539 0.163111 0.438666 0.453451C0.157793 0.743791 0 1.13758 0 1.54818C0 1.95878 0.157793 2.35257 0.438666 2.64291C0.719539 2.93325 1.10048 3.09636 1.4977 3.09636H2.90554C3.24766 3.08605 3.58288 3.1972 3.85539 3.41128C4.12789 3.62536 4.32124 3.92947 4.40324 4.27297L4.4931 5.0161L7.08412 15.4818C5.89247 15.5372 4.77094 16.0797 3.96624 16.9899C3.16154 17.9001 2.73959 19.1035 2.79321 20.3353C2.84683 21.5671 3.37164 22.7265 4.25218 23.5583C5.13271 24.3901 6.29685 24.8263 7.4885 24.7709H7.75808C7.51176 25.4724 7.43261 26.2249 7.52733 26.9648C7.62205 27.7047 7.88785 28.41 8.30222 29.0212C8.7166 29.6323 9.26734 30.1312 9.90781 30.4757C10.5483 30.8202 11.2596 31 11.9816 31C12.7036 31 13.4149 30.8202 14.0554 30.4757C14.6959 30.1312 15.2466 29.6323 15.661 29.0212C16.0753 28.41 16.3411 27.7047 16.4359 26.9648C16.5306 26.2249 16.4514 25.4724 16.2051 24.7709H19.7397C19.4934 25.4724 19.4142 26.2249 19.5089 26.9648C19.6036 27.7047 19.8694 28.41 20.2838 29.0212C20.6982 29.6323 21.2489 30.1312 21.8894 30.4757C22.5299 30.8202 23.2412 31 23.9632 31C24.6852 31 25.3965 30.8202 26.037 30.4757C26.6774 30.1312 27.2282 29.6323 27.6426 29.0212C28.0569 28.41 28.3227 27.7047 28.4175 26.9648C28.5122 26.2249 28.433 25.4724 28.1867 24.7709H28.4563C28.8535 24.7709 29.2344 24.6078 29.5153 24.3174C29.7962 24.0271 29.954 23.6333 29.954 23.2227C29.954 22.8121 29.7962 22.4183 29.5153 22.128C29.2344 21.8376 28.8535 21.6745 28.4563 21.6745ZM26.5392 6.19272L24.5772 14.3052C24.4952 14.6487 24.3019 14.9528 24.0294 15.1669C23.7569 15.381 23.4217 15.4921 23.0795 15.4818H10.1544L7.90785 6.19272H26.5392ZM11.9816 27.8672C11.6854 27.8672 11.3958 27.7764 11.1495 27.6063C10.9032 27.4362 10.7113 27.1944 10.5979 26.9115C10.4845 26.6286 10.4549 26.3173 10.5127 26.017C10.5705 25.7167 10.7131 25.4408 10.9226 25.2243C11.132 25.0078 11.3989 24.8603 11.6894 24.8006C11.9799 24.7409 12.2811 24.7715 12.5547 24.8887C12.8284 25.0059 13.0623 25.2043 13.2269 25.4589C13.3915 25.7135 13.4793 26.0128 13.4793 26.319C13.4793 26.7296 13.3215 27.1234 13.0406 27.4138C12.7598 27.7041 12.3788 27.8672 11.9816 27.8672ZM23.9632 27.8672C23.667 27.8672 23.3774 27.7764 23.1311 27.6063C22.8848 27.4362 22.6929 27.1944 22.5795 26.9115C22.4661 26.6286 22.4365 26.3173 22.4943 26.017C22.5521 25.7167 22.6947 25.4408 22.9042 25.2243C23.1136 25.0078 23.3805 24.8603 23.671 24.8006C23.9615 24.7409 24.2627 24.7715 24.5363 24.8887C24.81 25.0059 25.0439 25.2043 25.2085 25.4589C25.3731 25.7135 25.4609 26.0128 25.4609 26.319C25.4609 26.7296 25.3031 27.1234 25.0222 27.4138C24.7414 27.7041 24.3604 27.8672 23.9632 27.8672Z" fill="black"/>
</svg>
