<svg width="32" height="23" viewBox="0 0 32 23" fill="none" xmlns="http://www.w3.org/2000/svg">
<path d="M11.1562 0.0906277C8.38125 0.228128 3.95625 0.621878 3.09375 0.809378C1.91875 1.06563 0.8 2.18438 0.50625 3.39688C0.2875 4.30313 0 8.77188 0 11.3031C0 13.8344 0.2875 18.3031 0.50625 19.2094C0.8 20.4219 1.91875 21.5344 3.09375 21.7969C3.5375 21.8906 6 22.1531 7.84375 22.3031C13.0813 22.7219 18.8438 22.7219 24.175 22.3031C26 22.1594 28.45 21.8969 28.9062 21.7969C30.0875 21.5344 31.2 20.4219 31.4937 19.2094C31.7125 18.3031 32 13.8344 32 11.3031C32 8.77188 31.7125 4.30313 31.4937 3.39688C31.2 2.18438 30.0813 1.07188 28.9062 0.809378C27.9937 0.609379 23.7 0.234379 20.6562 0.0843773C18.3125 -0.0281219 13.4938 -0.0281219 11.1562 0.0906277ZM17.3687 8.64688C19.5375 10.0906 21.3062 11.2844 21.3062 11.3031C21.3062 11.3344 13.475 16.5656 13.3688 16.6031C13.3375 16.6156 13.3125 14.4281 13.3125 11.3031C13.3125 8.17813 13.3375 5.99063 13.3688 6.00313C13.4 6.00938 15.2 7.20313 17.3687 8.64688Z" fill="white"/>
</svg>
